<svg xmlns="http://www.w3.org/2000/svg" version="1.1" xmlns:xlink="http://www.w3.org/1999/xlink" xmlns:svgjs="http://svgjs.com/svgjs" width="1440" height="560" preserveAspectRatio="none" viewBox="0 0 1440 560"><g mask="url(&quot;#SvgjsMask1058&quot;)" fill="none"><rect width="1440" height="560" x="0" y="0" fill="rgba(222, 229, 237, 1)"></rect><path d="M0,495.61C90.704,479.873,128.542,370.262,205.036,319.042C279.388,269.257,400.104,281.034,440.045,200.962C479.796,121.27,402.758,32.036,392.315,-56.406C381.493,-148.053,439.107,-258.392,377.671,-327.254C316.066,-396.304,201.85,-365.927,109.606,-373.284C35.95,-379.159,-34.779,-379.301,-107.452,-365.947C-187.977,-351.15,-283.985,-354.383,-336.245,-291.358C-388.488,-228.354,-345.291,-131.665,-367.125,-52.785C-393.65,43.044,-500.863,121.359,-477.219,217.939C-454.117,312.306,-340.47,350.255,-256.496,399.115C-175.908,446.005,-91.865,511.548,0,495.61" fill="#a3b6cd"></path><path d="M1440 1154.963C1560.475 1152.0900000000001 1690.374 1172.4650000000001 1790.778 1105.821 1890.79 1039.437 1921.626 911.914 1971.0059999999999 802.502 2020.156 693.598 2087.424 587.342 2078.552 468.19 2069.4210000000003 345.554 2019.701 216.96499999999997 1921.8609999999999 142.46499999999997 1827.796 70.839 1695.792 104.04399999999998 1578.712 87.589 1481.242 73.88999999999999 1388.83 39.99599999999998 1291.382 53.853999999999985 1182.835 69.29000000000002 1076.921 102.74700000000001 991.2239999999999 171.13400000000001 894.541 248.288 772.745 340.98900000000003 776.638 464.623 780.638 591.637 956.713 641.009 1009.6600000000001 756.53 1062.4859999999999 871.788 985.269 1036.673 1078.304 1122.81 1168.958 1206.743 1316.492 1157.908 1440 1154.963" fill="#ffffff"></path></g><defs><mask id="SvgjsMask1058"><rect width="1440" height="560" fill="#ffffff"></rect></mask></defs></svg>